<svg version="1.1" id="Layer_1" xmlns="http://www.w3.org/2000/svg" xmlns:xlink="http://www.w3.org/1999/xlink" x="0px" y="0px"
	 width="100%" viewBox="0 0 500 500" enable-background="new 0 0 500 500" xml:space="preserve">
<path fill="#FFFFFF" opacity="1.000000" stroke="none" 
	d="
M270.000000,501.000000 
	C180.000015,501.000000 90.500046,501.000000 1.000048,501.000000 
	C1.000032,334.333405 1.000032,167.666794 1.000016,1.000138 
	C167.666565,1.000092 334.333130,1.000092 500.999756,1.000046 
	C500.999847,167.666519 500.999847,334.333038 500.999939,500.999786 
	C424.166656,501.000000 347.333344,501.000000 270.000000,501.000000 
M169.853012,282.464569 
	C166.885696,261.548828 163.844162,240.643250 160.983994,219.712860 
	C159.654495,209.983673 159.259445,209.459137 149.628662,209.458542 
	C146.186310,209.458328 142.743942,209.458496 139.436035,209.458496 
	C138.912872,207.251007 138.578400,205.632385 138.143967,204.041046 
	C135.779709,195.380692 128.551056,189.347809 119.463692,188.418015 
	C111.113838,187.563705 101.289261,192.162140 99.174896,200.566635 
	C96.846855,209.820465 91.504478,210.310211 84.273758,209.471603 
	C83.452057,209.376312 82.609146,209.475952 81.776527,209.460587 
	C77.987366,209.390686 75.835114,211.287704 75.306427,214.979813 
	C71.887383,238.856903 68.444054,262.730743 65.127335,286.622131 
	C64.384010,291.976471 66.307564,293.973267 71.724350,293.993134 
	C83.551918,294.036591 95.379745,294.006653 107.207466,294.006683 
	C126.031868,294.006683 144.856293,294.026001 163.680649,293.994812 
	C169.360748,293.985413 171.077530,291.918152 170.306396,286.296143 
	C170.170700,285.306885 170.083618,284.310944 169.853012,282.464569 
M432.531647,280.059784 
	C439.019714,273.908173 440.341278,266.004517 439.983643,257.613525 
	C439.590515,248.390366 436.438721,240.473190 427.513336,236.487442 
	C419.143829,232.749939 411.696838,235.089386 405.110260,242.270142 
	C404.980530,239.727173 404.886902,237.892075 404.792755,236.046600 
	C400.711670,236.046600 397.099365,236.046600 393.270966,236.046600 
	C393.270966,258.107666 393.270966,279.994781 393.270966,301.816345 
	C397.568634,301.816345 401.608673,301.816345 406.021759,301.816345 
	C406.021759,294.063354 406.021759,286.677032 406.021759,279.031372 
	C416.749847,286.743988 423.174286,287.056793 432.531647,280.059784 
M323.241821,248.307831 
	C322.746704,243.179825 320.701385,238.982788 315.816223,236.739517 
	C307.362518,232.857574 299.810944,234.961990 292.525146,241.436737 
	C292.525146,233.023544 292.525146,225.575684 292.525146,217.902649 
	C288.173065,217.902649 284.143738,217.902649 280.219299,217.902649 
	C280.219299,240.113754 280.219299,261.989075 280.219299,283.712769 
	C284.476776,283.712769 288.390137,283.712769 292.624146,283.712769 
	C292.624146,275.785004 292.527557,268.151367 292.670776,260.522186 
	C292.729584,257.389893 292.902374,254.154663 293.737640,251.165894 
	C295.101288,246.286407 299.458771,244.026443 304.695312,244.797302 
	C309.565002,245.514175 310.697754,248.998779 310.820465,253.111374 
	C310.959381,257.769043 310.925201,262.432312 310.938904,267.093201 
	C310.955353,272.679688 310.942810,278.266235 310.942810,283.755615 
	C315.500854,283.755615 319.425232,283.755615 323.347870,283.755615 
	C323.347870,272.055328 323.347870,260.612854 323.241821,248.307831 
M333.815857,259.454254 
	C334.471985,277.590302 347.449890,288.329041 364.197327,284.593903 
	C377.299988,281.671631 384.854492,269.956421 383.042389,255.369812 
	C381.493530,242.902267 370.811707,234.475967 357.131226,234.929947 
	C343.658539,235.377029 334.724152,244.466873 333.815857,259.454254 
M225.747009,249.497726 
	C225.724701,256.030975 229.143784,260.150238 235.098373,262.123871 
	C240.446564,263.896484 246.004715,265.050507 251.309814,266.930176 
	C253.125641,267.573547 254.455383,269.588867 256.007202,270.977386 
	C254.436691,272.457092 253.111389,274.642029 251.251236,275.288788 
	C244.786850,277.536407 240.175446,275.290833 236.068192,268.431000 
	C232.146805,269.050201 228.147125,269.681732 223.437515,270.425385 
	C225.136566,273.281036 226.175354,275.792480 227.866745,277.736023 
	C234.856659,285.768036 244.216888,285.948029 253.631882,284.538269 
	C262.814453,283.163330 268.657501,276.922241 268.914124,269.334106 
	C269.157928,262.123596 265.344574,258.001434 255.506241,255.091599 
	C250.733673,253.680038 245.831528,252.678421 241.127609,251.080383 
	C239.737106,250.607986 238.822784,248.733932 237.690262,247.502182 
	C239.013931,246.416656 240.210495,244.639130 241.683838,244.368530 
	C247.280121,243.340668 252.770569,243.328384 255.615997,249.667892 
	C259.560822,248.904465 263.225006,248.195343 267.204895,247.425110 
	C265.446045,242.102737 262.666138,238.329208 257.756134,236.643127 
	C250.299866,234.082626 242.670013,233.974869 235.236404,236.532394 
	C229.626038,238.462601 226.144440,242.510590 225.747009,249.497726 
M216.057846,273.453674 
	C216.990631,267.949158 218.866043,262.410980 218.671127,256.946686 
	C218.179398,243.162506 209.085251,234.348679 196.091904,233.897217 
	C181.600342,233.393723 172.497162,240.715454 170.311646,254.632477 
	C168.164993,268.302063 173.733139,279.920013 184.423660,284.077179 
	C196.561478,288.797211 208.766113,284.927307 216.057846,273.453674 
z"/>
<path fill="#289A25" opacity="1.000000" stroke="none" 
	d="
M169.913544,282.891327 
	C170.083618,284.310944 170.170700,285.306885 170.306396,286.296143 
	C171.077530,291.918152 169.360748,293.985413 163.680649,293.994812 
	C144.856293,294.026001 126.031868,294.006683 107.207466,294.006683 
	C95.379745,294.006653 83.551918,294.036591 71.724350,293.993134 
	C66.307564,293.973267 64.384010,291.976471 65.127335,286.622131 
	C68.444054,262.730743 71.887383,238.856903 75.306427,214.979813 
	C75.835114,211.287704 77.987366,209.390686 81.776527,209.460587 
	C82.609146,209.475952 83.452057,209.376312 84.273758,209.471603 
	C91.504478,210.310211 96.846855,209.820465 99.174896,200.566635 
	C101.289261,192.162140 111.113838,187.563705 119.463692,188.418015 
	C128.551056,189.347809 135.779709,195.380692 138.143967,204.041046 
	C138.578400,205.632385 138.912872,207.251007 139.436035,209.458496 
	C142.743942,209.458496 146.186310,209.458328 149.628662,209.458542 
	C159.259445,209.459137 159.654495,209.983673 160.983994,219.712860 
	C163.844162,240.643250 166.885696,261.548828 169.913544,282.891327 
M93.305550,269.062805 
	C95.435066,271.378479 97.285019,274.057068 99.740967,275.949005 
	C112.520477,285.793762 132.675293,282.917938 144.512329,273.893311 
	C145.238876,273.339386 146.090744,272.350067 146.102692,271.551605 
	C146.221024,263.644592 146.174316,255.735138 146.174316,247.680359 
	C137.458878,247.680359 129.474564,247.672653 121.490326,247.695175 
	C120.862228,247.696960 120.234718,247.909180 119.463608,248.049713 
	C119.463608,251.416016 119.463608,254.626465 119.463608,258.246399 
	C124.218452,258.246399 128.646408,258.246399 134.196060,258.246399 
	C133.416901,261.569641 133.701157,265.502380 131.990631,266.794556 
	C122.813438,273.727264 106.871826,273.912323 102.503174,258.835175 
	C101.284889,254.630600 101.041336,249.919510 101.403702,245.527679 
	C102.157211,236.395157 106.981773,230.659409 114.217972,229.083862 
	C122.828583,227.209061 127.869713,229.541168 133.539490,238.280396 
	C137.352646,237.530960 141.318848,236.751450 145.381546,235.952972 
	C144.099838,229.429947 140.897781,224.936539 135.908875,221.756088 
	C118.689011,210.778397 94.207375,220.285446 89.306129,239.941055 
	C86.839851,249.831680 87.897865,259.412140 93.305550,269.062805 
M119.188469,199.003052 
	C111.640076,199.162872 107.680969,202.701569 107.674309,209.247757 
	C114.421623,209.247757 121.164986,209.247757 128.332718,209.247757 
	C127.731857,203.685455 124.836746,200.598633 119.188469,199.003052 
z"/>
<path fill="#050505" opacity="1.000000" stroke="none" 
	d="
M432.266235,280.307312 
	C423.174286,287.056793 416.749847,286.743988 406.021759,279.031372 
	C406.021759,286.677032 406.021759,294.063354 406.021759,301.816345 
	C401.608673,301.816345 397.568634,301.816345 393.270966,301.816345 
	C393.270966,279.994781 393.270966,258.107666 393.270966,236.046600 
	C397.099365,236.046600 400.711670,236.046600 404.792755,236.046600 
	C404.886902,237.892075 404.980530,239.727173 405.110260,242.270142 
	C411.696838,235.089386 419.143829,232.749939 427.513336,236.487442 
	C436.438721,240.473190 439.590515,248.390366 439.983643,257.613525 
	C440.341278,266.004517 439.019714,273.908173 432.266235,280.307312 
M426.871704,256.047180 
	C426.647034,255.078415 426.474579,254.093964 426.189087,253.143478 
	C424.552277,247.693573 421.185822,244.890869 416.354401,244.915619 
	C411.458527,244.940704 407.025116,248.193237 406.443665,253.626923 
	C405.928162,258.444305 406.218689,263.601837 407.432404,268.277222 
	C408.588135,272.729279 412.501373,275.245209 417.394165,274.899414 
	C422.074524,274.568634 425.104126,271.764221 426.023071,267.261200 
	C426.710571,263.892303 426.658295,260.372437 426.871704,256.047180 
z"/>
<path fill="#070707" opacity="1.000000" stroke="none" 
	d="
M323.294861,248.739105 
	C323.347870,260.612854 323.347870,272.055328 323.347870,283.755615 
	C319.425232,283.755615 315.500854,283.755615 310.942810,283.755615 
	C310.942810,278.266235 310.955353,272.679688 310.938904,267.093201 
	C310.925201,262.432312 310.959381,257.769043 310.820465,253.111374 
	C310.697754,248.998779 309.565002,245.514175 304.695312,244.797302 
	C299.458771,244.026443 295.101288,246.286407 293.737640,251.165894 
	C292.902374,254.154663 292.729584,257.389893 292.670776,260.522186 
	C292.527557,268.151367 292.624146,275.785004 292.624146,283.712769 
	C288.390137,283.712769 284.476776,283.712769 280.219299,283.712769 
	C280.219299,261.989075 280.219299,240.113754 280.219299,217.902649 
	C284.143738,217.902649 288.173065,217.902649 292.525146,217.902649 
	C292.525146,225.575684 292.525146,233.023544 292.525146,241.436737 
	C299.810944,234.961990 307.362518,232.857574 315.816223,236.739517 
	C320.701385,238.982788 322.746704,243.179825 323.294861,248.739105 
z"/>
<path fill="#050505" opacity="1.000000" stroke="none" 
	d="
M333.821899,259.046478 
	C334.724152,244.466873 343.658539,235.377029 357.131226,234.929947 
	C370.811707,234.475967 381.493530,242.902267 383.042389,255.369812 
	C384.854492,269.956421 377.299988,281.671631 364.197327,284.593903 
	C347.449890,288.329041 334.471985,277.590302 333.821899,259.046478 
M369.626373,265.601746 
	C369.443481,261.342712 369.912842,256.922546 368.910919,252.865784 
	C367.686157,247.906647 363.650177,245.170181 358.468414,245.222626 
	C353.308258,245.274826 349.505707,248.051788 348.065948,253.002335 
	C347.161652,256.111847 346.916107,259.551331 347.085999,262.805664 
	C347.425476,269.308533 351.543427,273.822174 357.221130,274.617401 
	C362.487885,275.355042 366.600037,272.551056 369.626373,265.601746 
z"/>
<path fill="#050505" opacity="1.000000" stroke="none" 
	d="
M225.761230,249.117249 
	C226.144440,242.510590 229.626038,238.462601 235.236404,236.532394 
	C242.670013,233.974869 250.299866,234.082626 257.756134,236.643127 
	C262.666138,238.329208 265.446045,242.102737 267.204895,247.425110 
	C263.225006,248.195343 259.560822,248.904465 255.615997,249.667892 
	C252.770569,243.328384 247.280121,243.340668 241.683838,244.368530 
	C240.210495,244.639130 239.013931,246.416656 237.690262,247.502182 
	C238.822784,248.733932 239.737106,250.607986 241.127609,251.080383 
	C245.831528,252.678421 250.733673,253.680038 255.506241,255.091599 
	C265.344574,258.001434 269.157928,262.123596 268.914124,269.334106 
	C268.657501,276.922241 262.814453,283.163330 253.631882,284.538269 
	C244.216888,285.948029 234.856659,285.768036 227.866745,277.736023 
	C226.175354,275.792480 225.136566,273.281036 223.437515,270.425385 
	C228.147125,269.681732 232.146805,269.050201 236.068192,268.431000 
	C240.175446,275.290833 244.786850,277.536407 251.251236,275.288788 
	C253.111389,274.642029 254.436691,272.457092 256.007202,270.977356 
	C254.455383,269.588867 253.125641,267.573547 251.309814,266.930176 
	C246.004715,265.050507 240.446564,263.896484 235.098373,262.123871 
	C229.143784,260.150238 225.724701,256.030975 225.761230,249.117249 
z"/>
<path fill="#070707" opacity="1.000000" stroke="none" 
	d="
M215.910400,273.796814 
	C208.766113,284.927307 196.561478,288.797211 184.423660,284.077179 
	C173.733139,279.920013 168.164993,268.302063 170.311646,254.632477 
	C172.497162,240.715454 181.600342,233.393723 196.091904,233.897217 
	C209.085251,234.348679 218.179398,243.162506 218.671127,256.946686 
	C218.866043,262.410980 216.990631,267.949158 215.910400,273.796814 
M187.971420,244.017136 
	C179.789352,249.815094 177.830902,264.791748 184.249466,272.479553 
	C190.661545,280.159576 203.259659,278.349670 206.689163,268.924469 
	C208.005768,265.306122 208.232986,261.088043 208.081680,257.177063 
	C207.629913,245.499451 200.059036,240.382248 187.971420,244.017136 
z"/>
<path fill="#FBFDFB" opacity="1.000000" stroke="none" 
	d="
M93.136612,268.733734 
	C87.897865,259.412140 86.839851,249.831680 89.306129,239.941055 
	C94.207375,220.285446 118.689011,210.778397 135.908875,221.756088 
	C140.897781,224.936539 144.099838,229.429947 145.381546,235.952972 
	C141.318848,236.751450 137.352646,237.530960 133.539490,238.280396 
	C127.869713,229.541168 122.828583,227.209061 114.217972,229.083862 
	C106.981773,230.659409 102.157211,236.395157 101.403702,245.527679 
	C101.041336,249.919510 101.284889,254.630600 102.503174,258.835175 
	C106.871826,273.912323 122.813438,273.727264 131.990631,266.794556 
	C133.701157,265.502380 133.416901,261.569641 134.196060,258.246399 
	C128.646408,258.246399 124.218452,258.246399 119.463608,258.246399 
	C119.463608,254.626465 119.463608,251.416016 119.463608,248.049713 
	C120.234718,247.909180 120.862228,247.696960 121.490326,247.695175 
	C129.474564,247.672653 137.458878,247.680359 146.174316,247.680359 
	C146.174316,255.735138 146.221024,263.644592 146.102692,271.551605 
	C146.090744,272.350067 145.238876,273.339386 144.512329,273.893311 
	C132.675293,282.917938 112.520477,285.793762 99.740967,275.949005 
	C97.285019,274.057068 95.435066,271.378479 93.136612,268.733734 
z"/>
<path fill="#FAFAFA" opacity="1.000000" stroke="none" 
	d="
M119.593231,199.034149 
	C124.836746,200.598633 127.731857,203.685455 128.332718,209.247757 
	C121.164986,209.247757 114.421623,209.247757 107.674309,209.247757 
	C107.680969,202.701569 111.640076,199.162872 119.593231,199.034149 
z"/>
<path fill="#FAFAFA" opacity="1.000000" stroke="none" 
	d="
M426.903564,256.483459 
	C426.658295,260.372437 426.710571,263.892303 426.023071,267.261200 
	C425.104126,271.764221 422.074524,274.568634 417.394165,274.899414 
	C412.501373,275.245209 408.588135,272.729279 407.432404,268.277222 
	C406.218689,263.601837 405.928162,258.444305 406.443665,253.626923 
	C407.025116,248.193237 411.458527,244.940704 416.354401,244.915619 
	C421.185822,244.890869 424.552277,247.693573 426.189087,253.143478 
	C426.474579,254.093964 426.647034,255.078415 426.903564,256.483459 
z"/>
<path fill="#FAFAFA" opacity="1.000000" stroke="none" 
	d="
M369.471985,265.985413 
	C366.600037,272.551056 362.487885,275.355042 357.221130,274.617401 
	C351.543427,273.822174 347.425476,269.308533 347.085999,262.805664 
	C346.916107,259.551331 347.161652,256.111847 348.065948,253.002335 
	C349.505707,248.051788 353.308258,245.274826 358.468414,245.222626 
	C363.650177,245.170181 367.686157,247.906647 368.910919,252.865784 
	C369.912842,256.922546 369.443481,261.342712 369.471985,265.985413 
z"/>
<path fill="#FBFDFB" opacity="1.000000" stroke="none" 
	d="
M188.348602,243.863007 
	C200.059036,240.382248 207.629913,245.499451 208.081680,257.177063 
	C208.232986,261.088043 208.005768,265.306122 206.689163,268.924469 
	C203.259659,278.349670 190.661545,280.159576 184.249466,272.479553 
	C177.830902,264.791748 179.789352,249.815094 188.348602,243.863007 
z"/>
</svg>